<svg width="367.20000000000005" height="234.5599925632702" viewBox="0 0 349.99999999999994 223.57297766106905" class="looka-1j8o68f"><defs id="SvgjsDefs1608"></defs><g id="SvgjsG1609" featurekey="symbolFeature-0" transform="matrix(1.203911819043807,0,0,1.203911819043807,76.86742976856515,-27.07328299881535)" fill="#ffebb7"><path xmlns="http://www.w3.org/2000/svg" fill="" d="M81.57 41.85c4.39 5.22 6.94 10.24 6.93 17.4q-.01 14.92.01 22 0 .47.46.55 7.6 1.45 14.55 2.84 4.97.99 6.49 2.16c4.27 3.3 2.41 12.36-3.71 12.65-2.15.11-5.42-1.22-7.05-1.57q-.69-.15-.65.37l.11 1.53q.04.52-.49.52h-9.1q-.56 0-.56.56v14.75q0 .5.5.5h7.33q.63 0 .8-.6l.19-.68a.82.81-88.7 0 1 .59-.57l8.59-2.05a1.85 1.82 47.4 0 1 1.01.05l28.89 9.66q.45.15.57.62l.61 2.57q.18.76-.58.94l-15.53 3.71a3.13 3.11 46.6 0 1-1.61-.05l-21.01-6.36a6.1 5.85-35.3 0 0-1.75-.26H55.58q-.62 0-.79.59l-2.29 8.07a.69.69 0 0 0 .41.83l7.52 3.07a1 .98-86 0 1 .59.69l.72 3.01q.14.58-.44.72l-14.48 3.46q-.52.12-1.02-.05L26.41 137a.8.8 0 0 1-.53-.94l.66-2.96q.09-.41.59-.53l12.64-3.02a.85.84-88.1 0 0 .62-.59l23.64-83.23q.22-.77-.56-.94l-16.9-3.77a1.28 1.28 0 0 1-1.01-1.25v-3.74q0-.38-.36-.48-1.73-.5-2.27-.62-7.35-1.69-5.41-8.63c1.07-3.83 4.35-4.1 8-3.65q22.3 2.72 46.39 6.36c4.89.74 8.19 2.24 7.79 7.56-.41 5.29-4.05 7.65-9.21 6.67q-5.14-.98-8.64-1.84-.82-.2-.28.45m-25.51-10.4q15.51 3.61 33.99 8.14 1.79.44 3.44.32a2.49 2.49 0 0 0 2.26-3.02q-.66-3.01-4.2-3.73-4.87-.98-30.58-4.93-.79-.13-1.38.27l-3.61 2.43q-.55.37.08.52m10.81 48.42q-5.14 17.87-10.04 35.76a.37.37 0 0 0 .36.47h19.12a.29.29 0 0 0 .29-.29l.03-65.56a1 .92 5.6 0 0-.82-.92q-.22-.04-.38.53-6.45 22.68-8.56 30.01M52.92 95.6q-4.78 16.29-7.45 28.72-.89 4.15.78.25 4.86-11.38 9.76-28.06 4.89-16.68 6.96-28.88.7-4.19-.79-.22-4.48 11.91-9.26 28.19m27.1-5.31q-.01 6.61.47 13.21.56 7.59.93 7.59.38 0 .98-7.58.52-6.6.54-13.21t-.46-13.22q-.56-7.58-.93-7.58-.38 0-.98 7.58-.53 6.6-.55 13.21m8.4-5.43v6.43q0 .48.55.64l15.46 4.64q3.84 1.16 5.36-2.75.04-.11.11-.45.82-4.03-3.19-4.92L88.9 84.48q-.48-.11-.48.38m16.16 32.82-.38 1.29a.29.29 0 0 0 .2.36l2.71.8a8.62.81 16.5 0 0 8.5 1.67l.08-.29a8.62.81 16.5 0 0-8.03-3.22l-2.72-.81a.29.29 0 0 0-.36.2"></path></g><g id="SvgjsG1610" featurekey="nameFeature-0" transform="matrix(1.9529504258839492,0,0,1.9529504258839492,0,144.9862492455365)" fill="#fff4e1"><path d="M5.48 40.24 c-3.04 0 -5.48 -2.48 -5.48 -5.48 l0 -4.36 l3.88 0 l0 4.36 c0 0.88 0.72 1.6 1.6 1.6 s1.56 -0.72 1.56 -1.6 l0 -3.8 l-7.04 -9.72 l0 -4.96 c0 -3.04 2.44 -5.52 5.48 -5.52 c3 0 5.44 2.48 5.44 5.52 l0 4.32 l-3.88 0 l0 -4.32 c0 -0.92 -0.68 -1.6 -1.56 -1.6 s-1.6 0.68 -1.6 1.6 l0 3.64 l7.04 9.72 l0 5.12 c0 3 -2.44 5.48 -5.44 5.48 z M25.148000000000003 40 l-1.44 -9.88 l-4.04 0 l-1.32 9.88 l-3.84 0 l4.32 -28.6 l5.16 0 l5 28.6 l-3.84 0 z M20.188000000000002 26.32 l2.96 0 l-1.52 -10.4 z M38.896 40.08 c-3.24 0 -5.88 -2.64 -5.88 -5.88 l0 -22.72 l3.8 0 l0 22.72 c0 1.16 0.92 2.12 2.08 2.12 s2.08 -0.96 2.08 -2.12 l0 -22.72 l3.8 0 l0 22.72 c0 3.24 -2.64 5.88 -5.88 5.88 z M53.804 40.04 l-5 0 l0 -28.52 l5 0 c3.4 0 6.12 2.76 6.12 6.16 l0 16.2 c0 1.64 -0.64 3.2 -1.8 4.36 s-2.68 1.8 -4.32 1.8 z M52.604 15.36 l0 20.84 l1.2 0 c0.6 0 1.2 -0.24 1.64 -0.68 s0.68 -1 0.68 -1.64 l0 -16.2 c0 -1.28 -1.04 -2.32 -2.32 -2.32 l-1.2 0 z M73.272 24.92 l-5.52 0 l0 11.28 l5.56 0 l0 3.8 l-9.36 0 l0 -28.56 l9.36 0 l0 3.8 l-5.56 0 l0 5.88 l5.52 0 l0 3.8 z M91.168 34 l0 5.96 l-3.8 0 l0 -28.52 l5.92 0 c2.64 0 4.76 2.16 4.76 4.8 l0 13 c0 2.64 -2.12 4.76 -4.76 4.76 l-2.12 0 z M91.168 15.239999999999998 l0 14.96 l2.12 0 c0.56 0 0.96 -0.4 0.96 -0.96 l0 -13 c0 -0.56 -0.4 -1 -0.96 -1 l-2.12 0 z M105.876 11.36 l0 28.48 l-3.8 0 l0 -28.48 l3.8 0 z M113.66400000000002 36.24 l5.52 0 l0 3.76 l-9.28 0 l0 -28.72 l3.76 0 l0 24.96 z M133.21200000000002 40 l-1.44 -9.88 l-4.04 0 l-1.32 9.88 l-3.84 0 l4.32 -28.6 l5.16 0 l5 28.6 l-3.84 0 z M128.252 26.32 l2.96 0 l-1.52 -10.4 z M150.88000000000002 11.36 l0 3.84 l-4.76 0 l0 24.84 l-3.84 0 l0 -24.84 l-5.24 0 l0 -3.84 l13.84 0 z M164.228 24.92 l-5.52 0 l0 11.28 l5.56 0 l0 3.8 l-9.36 0 l0 -28.56 l9.36 0 l0 3.8 l-5.56 0 l0 5.88 l5.52 0 l0 3.8 z M173.776 40.24 c-3.04 0 -5.48 -2.48 -5.48 -5.48 l0 -4.36 l3.88 0 l0 4.36 c0 0.88 0.72 1.6 1.6 1.6 s1.56 -0.72 1.56 -1.6 l0 -3.8 l-7.04 -9.72 l0 -4.96 c0 -3.04 2.44 -5.52 5.48 -5.52 c3 0 5.44 2.48 5.44 5.52 l0 4.32 l-3.88 0 l0 -4.32 c0 -0.92 -0.68 -1.6 -1.56 -1.6 s-1.6 0.68 -1.6 1.6 l0 3.64 l7.04 9.72 l0 5.12 c0 3 -2.44 5.48 -5.44 5.48 z"></path></g></svg>